<svg width="470" height="330" viewBox="0 0 470 330" xmlns="http://www.w3.org/2000/svg" font-family="Segoe UI, Arial, sans-serif">
<style>
  .lot{fill:#f4f1ea;stroke:#8a8577;stroke-width:1.5}
  .setback{fill:none;stroke:#b7ae97;stroke-width:1;stroke-dasharray:4 3}
  .forest{fill:#cfe0c3;stroke:none}
  .tree{fill:#7fa06a}
  .house{fill:#5b6b7a;stroke:#3d4a56;stroke-width:1.5}
  .pool{fill:#7fb0d0;stroke:#2f6f92;stroke-width:1.5}
  .terr{fill:#e6d9b8;stroke:#b7a878;stroke-width:1;stroke-dasharray:3 2}
  .link{fill:#c9b8d6;stroke:#8a6ea6;stroke-width:1.5}
  .gym{fill:#9aa39a;stroke:#68715f;stroke-width:1}
  .lbl{font-size:9px;fill:#2b2b2b}
  .wlbl{font-size:9px;fill:#fff;font-weight:bold}
  .cap{font-size:13px;fill:#1c1c1c;font-weight:bold}
  .sub{font-size:9.5px;fill:#555}
  .edge{font-size:8.5px;fill:#6b6459;font-style:italic}
  .n{font-size:10px;fill:#333;font-weight:bold}
</style>
<text x="20" y="24" class="cap">Option B — “The Breezeway” (pool as LINK)</text>
<text x="20" y="38" class="sub">Two volumes joined by an operable glazed link — the link IS the wellness threshold</text>
<!-- forest band (W / left) -->
<rect x="20" y="55" width="34" height="207" class="forest"/>
<circle cx="30" cy="80" r="7" class="tree"/><circle cx="44" cy="105" r="8" class="tree"/>
<circle cx="30" cy="135" r="8" class="tree"/><circle cx="44" cy="168" r="7" class="tree"/>
<circle cx="30" cy="200" r="8" class="tree"/><circle cx="44" cy="235" r="7" class="tree"/>
<text x="21" y="300" class="edge">Weaselhead</text><text x="24" y="311" class="edge">forest (W)</text>
<!-- lot -->
<polygon class="lot" points="60,60 335,60 335,179 60,257"/>
<polygon class="setback" points="105,67 317,67 317,166 105,226"/>
<!-- edge labels -->
<text x="150" y="52" class="edge">N boundary 45.9 m</text>
<text x="340" y="120" class="edge">Livingstone</text><text x="340" y="131" class="edge">Dr (E/front)</text>
<text x="120" y="278" class="edge">S neighbour (3.0 m side, S sun slot)</text>
<!-- N arrow -->
<g transform="translate(420,50)"><line x1="0" y1="18" x2="0" y2="0" stroke="#333" stroke-width="1.5"/><polygon points="0,-4 -4,4 4,4" fill="#333"/><text x="-3" y="30" class="n">N</text></g>

<!-- house volume (E/front-center) -->
<rect x="205" y="70" width="100" height="90" class="house"/>
<text x="214" y="92" class="wlbl">HOUSE</text>
<text x="214" y="104" class="wlbl" style="font-weight:normal">120 m²</text>
<text x="212" y="150" class="wlbl" style="font-weight:normal">beds | great rm</text>
<!-- pool pavilion (W, near forest, behind rear setback) -->
<rect x="112" y="72" width="58" height="86" class="pool"/>
<text x="120" y="112" class="wlbl">POOL</text>
<text x="118" y="124" class="wlbl" style="font-weight:normal">pavilion</text>
<!-- operable glazed link -->
<rect x="170" y="98" width="35" height="34" class="link"/>
<text x="150" y="90" class="lbl">operable link</text>
<!-- sheltered terrace S of link -->
<rect x="118" y="162" width="120" height="52" class="terr"/>
<text x="150" y="192" class="lbl">sheltered terrace</text>
<!-- gym -->
<rect x="278" y="168" width="26" height="26" class="gym"/>
<text x="274" y="205" class="lbl">gym</text>

</svg>
